<svg width="146" height="193" viewBox="0 0 146 193" fill="none" xmlns="http://www.w3.org/2000/svg">
<path d="M143.807 93.8355C134.354 83.4832 121.75 76.4 108.622 73.6757C102.845 72.0412 97.0683 70.9514 91.2917 70.4066C105.996 52.4262 103.37 25.1832 86.0402 9.92715C68.7103 -5.32892 42.4529 -2.60462 27.7487 15.3757C13.0446 33.3561 15.6703 60.5991 33.0002 75.8552C36.1511 78.5795 39.302 80.7589 42.4529 81.8486V93.8355L34.0505 85.6627C26.6984 78.0346 14.62 78.0346 6.74278 85.6627C-0.609295 93.2907 -1.13445 105.278 6.21763 112.906L30.3745 142.328C31.4248 149.956 34.0505 157.039 37.7266 163.578C40.3523 168.481 44.0283 173.385 47.7044 177.199V187.551C47.7044 190.821 49.805 193 52.9559 193H124.376C127.002 193 129.628 190.276 129.628 187.551V173.385C139.605 160.853 144.857 145.052 144.857 129.251V97.6496C145.382 95.4701 144.857 94.3804 143.807 93.8355ZM28.2739 42.6187C28.2739 24.6384 42.4529 10.472 59.7828 11.0169C77.1127 11.0169 90.7666 25.7281 90.2414 43.7085C90.2414 53.5159 86.0402 62.2337 78.6881 68.2271V40.9842C78.42 36.2622 76.4211 31.8256 73.1012 28.5838C69.7814 25.3419 65.3921 23.5405 60.8331 23.5486C51.3804 23.0038 42.978 31.1767 42.978 40.9842V69.3169C34.0505 63.8683 28.799 53.5159 28.2739 42.6187ZM134.879 128.707C135.404 142.873 130.678 156.494 121.75 167.392C120.7 168.481 119.65 169.571 119.65 171.206V182.648H58.7325V175.02C58.7325 173.385 57.6822 171.75 56.6319 170.661C52.9559 167.392 49.805 163.578 47.1792 158.674C44.0283 153.225 41.9277 146.687 40.8774 140.149C40.8774 139.059 40.3523 137.969 39.8271 136.879L14.62 105.822C13.0446 104.188 11.9943 102.008 11.9943 99.2841C11.9943 97.1047 13.0446 94.3804 14.62 92.7458C18.2961 89.4767 23.5475 89.4767 27.2236 92.7458L42.4529 108.547V124.893L52.4307 119.444V40.9842C52.9559 37.1701 56.1068 33.901 60.3079 34.4458C63.984 34.4458 67.66 37.1701 67.66 40.9842V103.643L78.163 105.822V80.7589C78.6881 80.2141 79.2133 80.2141 79.7384 79.6692C83.4145 79.6692 87.0905 80.2141 90.7666 80.7589V108.547L99.1689 110.181V81.8486L105.471 83.4832C108.096 84.0281 110.722 85.1178 113.348 86.2075V113.451L121.75 115.085V90.0215C126.477 92.201 130.678 95.4701 134.354 99.2841L134.879 128.707Z" fill="#FA4E4E"/>
</svg>
