<svg width="194" height="155" viewBox="0 0 194 155" fill="none" xmlns="http://www.w3.org/2000/svg">
<path d="M189.15 106.562H184.3V73.8369C184.3 69.9922 182.754 66.2988 180.026 63.5742L149.744 33.3311C147.016 30.6064 143.318 29.0625 139.468 29.0625H126.1V14.5312C126.1 6.50879 119.583 0 111.55 0H14.55C6.51719 0 0 6.50879 0 14.5312V111.406C0 119.429 6.51719 125.938 14.55 125.938H19.4C19.4 141.982 32.4344 155 48.5 155C64.5656 155 77.6 141.982 77.6 125.938H116.4C116.4 141.982 129.434 155 145.5 155C161.566 155 174.6 141.982 174.6 125.938H189.15C191.817 125.938 194 123.758 194 121.094V111.406C194 108.742 191.817 106.562 189.15 106.562ZM48.5 140.469C40.4672 140.469 33.95 133.96 33.95 125.938C33.95 117.915 40.4672 111.406 48.5 111.406C56.5328 111.406 63.05 117.915 63.05 125.938C63.05 133.96 56.5328 140.469 48.5 140.469ZM145.5 140.469C137.467 140.469 130.95 133.96 130.95 125.938C130.95 117.915 137.467 111.406 145.5 111.406C153.533 111.406 160.05 117.915 160.05 125.938C160.05 133.96 153.533 140.469 145.5 140.469ZM169.75 77.5H126.1V43.5938H139.468L169.75 73.8369V77.5Z" fill="#FA4E4E"/>
</svg>
