<svg width="70" height="56" viewBox="0 0 70 56" fill="none" xmlns="http://www.w3.org/2000/svg">
<path d="M67.8041 37.9642H66.0775V26.3303C66.0775 24.9636 65.5272 23.6506 64.556 22.682L53.776 11.9306C52.8048 10.962 51.4884 10.4132 50.1179 10.4132H45.3592V5.24736C45.3592 2.3954 43.0392 0.081543 40.1796 0.081543H5.64898C2.78942 0.081543 0.469391 2.3954 0.469391 5.24736V39.6861C0.469391 42.5381 2.78942 44.8519 5.64898 44.8519H7.37551C7.37551 50.5559 12.0156 55.1836 17.7347 55.1836C23.4538 55.1836 28.0939 50.5559 28.0939 44.8519H41.9061C41.9061 50.5559 46.5462 55.1836 52.2653 55.1836C57.9844 55.1836 62.6245 50.5559 62.6245 44.8519H67.8041C68.7537 44.8519 69.5306 44.0771 69.5306 43.13V39.6861C69.5306 38.7391 68.7537 37.9642 67.8041 37.9642ZM17.7347 50.0178C14.8751 50.0178 12.5551 47.7039 12.5551 44.8519C12.5551 42 14.8751 39.6861 17.7347 39.6861C20.5943 39.6861 22.9143 42 22.9143 44.8519C22.9143 47.7039 20.5943 50.0178 17.7347 50.0178ZM52.2653 50.0178C49.4057 50.0178 47.0857 47.7039 47.0857 44.8519C47.0857 42 49.4057 39.6861 52.2653 39.6861C55.1249 39.6861 57.4449 42 57.4449 44.8519C57.4449 47.7039 55.1249 50.0178 52.2653 50.0178ZM60.898 27.6326H45.3592V15.579H50.1179L60.898 26.3303V27.6326Z" fill="#FA4E4E"/>
</svg>
