<svg width="70" height="58" viewBox="0 0 70 58" fill="none" xmlns="http://www.w3.org/2000/svg">
<path d="M10.2941 12.4286H10.5C11.4522 7.70183 15.6085 4.14286 20.5882 4.14286C22.4026 4.14286 24.204 4.67366 25.8511 5.59933C27.5625 2.2721 31.0239 0 35 0C38.9761 0 42.4375 2.27339 44.1489 5.59933C45.6801 4.67366 47.4816 4.14286 49.4118 4.14286C54.3915 4.14286 58.432 7.70183 59.5 12.4286H59.7059C64.2482 12.4286 67.9412 16.1442 67.9412 20.7143C67.9412 22.229 67.5423 23.6402 66.8346 24.8571H3.16029C2.46029 23.6402 2.05882 22.229 2.05882 20.7143C2.05882 16.1442 5.7454 12.4286 10.2941 12.4286ZM0 32.5473C0 30.5924 1.58015 29 3.5296 29H66.4743C68.4173 29 70 30.5924 70 32.5473C70 41.9853 63.9007 49.9991 55.4467 52.7955C55.5368 53.1321 55.5882 53.4946 55.5882 53.8571C55.5882 56.1487 53.7482 58 51.4706 58H18.5294C16.2518 58 14.4118 56.1487 14.4118 53.8571C14.4118 53.4946 14.4632 53.1321 14.5533 52.7955C6.09927 49.9991 0 41.9853 0 32.5473Z" fill="#FA4E4E"/>
</svg>
