<svg width="184" height="184" viewBox="0 0 184 184" fill="none" xmlns="http://www.w3.org/2000/svg">
<rect width="184" height="184" fill="white"/>
<path d="M171.336 103.152C182.35 82.1704 159.962 67.62 130.692 60.4842C132.894 55.4789 133.532 48.9268 127.322 42.6707C119.358 34.6639 124.651 23 124.651 23C124.651 23 107.936 38.4186 118.49 49.0504C122.383 52.969 124.41 56.4104 125.379 59.2882C117.298 57.6227 109.116 56.4951 100.887 55.913C103.345 49.2315 103.583 40.8394 95.8381 32.8037C85.2351 21.7896 92.2961 5.75 92.2961 5.75C92.2961 5.75 70.0062 26.9503 84.0794 41.5667C89.217 46.897 91.9224 51.589 93.2334 55.522C84.5106 55.2604 76.1156 55.6427 68.6579 56.6864C69.5462 52.3882 68.8045 47.4461 64.0636 42.6736C56.0999 34.6668 61.3956 23 61.3956 23C61.3956 23 44.6775 38.4186 55.2345 49.0504C58.5407 52.3796 60.4785 55.3524 61.5911 57.9427C60.3319 58.2187 59.11 58.5177 57.9341 58.8426C21.5884 55.4415 5.73562 62.951 12.9777 77.6825C0.33925 90.321 5.08875 104.745 20.9041 115.782C29.1554 149.767 31.28 178.25 93.426 178.25C148.879 178.25 156.541 155.566 163.409 126.535C184.017 122.432 179.627 112.553 171.336 103.152ZM166.198 99.7568C159.295 114.477 129.338 125.557 93.426 125.557C57.5172 125.557 27.5597 114.477 20.654 99.7568C20.5074 99.3198 20.3665 98.8655 20.2256 98.4228C23.5146 90.0795 34.2039 82.8402 49.2171 77.993C45.6895 81.4027 44.9564 86.4944 54.2397 88.2797C56.8962 88.7915 64.1901 87.0205 61.0017 77.97C60.5561 76.705 59.8287 75.8569 58.9346 75.3451C69.2501 72.9847 80.96 71.6249 93.426 71.6249C94.8232 71.6249 96.1946 71.6738 97.5717 71.7054C90.3785 74.2584 84.5106 82.1244 99.199 84.4445C102.442 84.9563 111.346 83.1852 107.453 74.1348C107.113 73.3281 106.568 72.6244 105.872 72.0935C119.634 73.1055 132.103 75.7563 142.183 79.5771C133.319 79.0826 123.487 84.5451 139.233 92.2357C142.611 93.886 152.875 95.4011 151.464 85.4076C151.361 84.6856 151.107 83.9937 150.716 83.3779C158.775 87.6242 164.395 92.7734 166.623 98.4228L166.198 99.7568Z" fill="#FA4E4E"/>
<path d="M74.2814 105.918C83.5763 105.918 89.7748 97.5142 94.6306 94.2252C101.416 89.6252 118.476 87.8312 103.451 87.469C89.1998 87.1268 71.6048 98.6958 59.846 97.8995C40.3765 96.577 60.3175 105.918 74.2814 105.918ZM94.3662 123.087C97.6494 123.72 106.674 121.529 102.727 110.337C98.2675 97.6723 71.2742 118.643 94.3662 123.087ZM43.2601 95.3867C40.1235 90.9592 35.5753 85.3443 33.6921 88.2682C31.119 92.2673 30.3083 100.314 32.177 100.671C46.828 103.48 45.8016 98.9718 43.2601 95.3867ZM128.432 97.1807C131.074 93.909 125.799 86.0343 122.412 87.4115C117.11 89.5677 114.054 88.1072 111.725 91.379C106.272 99.0408 124.841 101.623 128.432 97.1807ZM126.782 106.556C122.981 104.88 123.878 110.495 118.263 105.99C114.244 102.764 105.596 110.9 111.3 116.426C117.648 122.576 119.338 116.731 122.006 117.222C127.429 118.22 136.752 110.955 126.782 106.556ZM63.5835 108.477C61.6026 106.527 58.9461 108.879 57.4454 111.748C55.959 111.018 54.7486 110.848 54.7486 110.848C53.613 107.611 50.2349 105.392 50.2349 105.392C50.2349 105.392 50.5425 108.758 50.9881 110.4C47.2564 109.075 47.1414 102.405 47.1414 102.405C47.1414 102.405 44.6373 103.902 44.8644 106.447C40.756 103.132 37.2571 104.682 37.2571 104.682C37.2571 104.682 42.4695 107.614 43.1883 109.592C40.2615 109.819 38.5538 110.831 37.559 113.186C37.5619 113.206 43.3435 110.434 47.6215 112.435C45.9339 113.815 46.7734 117.263 46.7734 117.263C50.7553 113.042 53.935 113.493 56.4794 114.25C56.1718 115.54 56.1919 116.719 56.7381 117.435C61.1513 123.237 76.5239 121.932 80.6524 117.642C85.652 112.453 71.76 116.524 63.5835 108.477Z" fill="#FA4E4E"/>
<path d="M74.4424 86.6236C73.1342 89.2514 73.1256 91.2351 74.6379 93.2994C74.658 93.3051 75.2474 86.9226 79.1602 84.2776C79.4794 86.4339 82.8661 87.4804 82.8661 87.4804C80.1579 77.8894 88.0641 77.3891 88.0267 73.9478C83.835 74.3014 81.4545 77.3489 81.4545 77.3489C78.0936 76.6618 74.451 78.4184 74.451 78.4184C74.451 78.4184 77.5014 79.8817 79.1372 80.3446C76.084 82.866 70.2995 79.5396 70.2995 79.5396C70.2995 79.5396 70.2995 82.4606 72.5995 83.5675C67.6459 85.3931 67.1801 89.1881 67.1801 89.1881C67.1801 89.1881 72.3724 86.224 74.4424 86.6236ZM147.901 99.7221C149.092 97.4624 147.355 95.1135 147.355 95.1135C147.355 95.1135 144.684 101.229 140.731 101.019C141.772 99.6733 143.353 96.6833 143.353 96.6833C143.353 96.6833 139.38 97.4394 137.086 99.9895C137.086 99.9895 133.36 98.9574 129.783 101.165C131.801 103.954 138.454 99.6503 141.982 108.971C141.982 108.971 144.081 106.116 143.054 104.193C147.775 103.989 152.047 108.767 152.062 108.75C152.044 106.191 150.86 104.604 148.241 103.27C149.667 101.72 155.606 101.016 155.606 101.016C155.606 101.016 152.973 98.2415 147.901 99.7221Z" fill="#FA4E4E"/>
</svg>
