<svg width="73" height="66" viewBox="0 0 73 66" fill="none" xmlns="http://www.w3.org/2000/svg">
<path d="M25.2857 65.6937V54.857H0V47.6325H25.2857C27.2724 47.6325 28.9738 48.3393 30.3898 49.7529C31.8034 51.1689 32.5102 52.8703 32.5102 54.857V65.6937H25.2857ZM39.7347 65.6937V54.857C39.7347 52.8703 40.4427 51.1689 41.8587 49.7529C43.2723 48.3393 44.9724 47.6325 46.9592 47.6325H72.2449V54.857H46.9592V65.6937H39.7347ZM14.449 44.0203C11.4388 44.0203 8.8801 42.9667 6.77296 40.8596C4.66582 38.7524 3.61224 36.1937 3.61224 33.1835V18.7346H68.6327V33.1835C68.6327 36.1937 67.5791 38.7524 65.4719 40.8596C63.3648 42.9667 60.8061 44.0203 57.7959 44.0203H14.449ZM3.61224 15.1223V7.89783H25.2857V4.28558C25.2857 3.26212 25.6325 2.4036 26.326 1.71005C27.0172 1.01891 27.8745 0.67334 28.898 0.67334H43.3469C44.3704 0.67334 45.2289 1.01891 45.9225 1.71005C46.6136 2.4036 46.9592 3.26212 46.9592 4.28558V7.89783H68.6327V15.1223H3.61224Z" fill="#FA4E4E"/>
</svg>
